PathFileType	4	(X/Y/Z)	Patient4_TMGait_0pt4_03_left_02.trc.trc
DataRate	CameraRate	NumFrames	NumMarkers	Units	OrigDataRate	OrigDataStartFrame	OrigNumFrames
75.675675675676	75.675675675676	4	33	mm	75.675675675676	18	       141
Frame#	Time	Sacral			L.Shoulder			Chest			R.Shoulder			Neck			R.ASIS			L.ASIS			R.Thigh.Superior			R.Thigh.Lateral			R.Thigh.Inferior			R.Patella			L.Thigh.Superior			L.Thigh.Lateral			L.Thigh.Inferior			L.Patella			L.Shank.Superior			L.Shank.Lateral			L.Shank.Inferior			R.Shank.Superior			R.Shank.Lateral			R.Shank.Inferior			R.Heel			R.Midfoot.Superior			R.Midfoot.Lateral			R.Toe			L.Heel			L.Midfoot.Lateral			L.Midfoot.Superior			L.Toe			L.Elbow			L.Wrist			R.Elbow			R.Wrist			
		X1	Y1	Z1	X2	Y2	Z2	X3	Y3	Z3	X4	Y4	Z4	X5	Y5	Z5	X6	Y6	Z6	X7	Y7	Z7	X8	Y8	Z8	X9	Y9	Z9	X10	Y10	Z10	X11	Y11	Z11	X12	Y12	Z12	X13	Y13	Z13	X14	Y14	Z14	X15	Y15	Z15	X16	Y16	Z16	X17	Y17	Z17	X18	Y18	Z18	X19	Y19	Z19	X20	Y20	Z20	X21	Y21	Z21	X22	Y22	Z22	X23	Y23	Z23	X24	Y24	Z24	X25	Y25	Z25	X26	Y26	Z26	X27	Y27	Z27	X28	Y28	Z28	X29	Y29	Z29	X30	Y30	Z30	X31	Y31	Z31	X32	Y32	Z32	X33	Y33	Z33	

18	2.374642857143	790.045135028588	1011.705443141722	541.450402214015	943.544565729631	1442.412241115030	354.987131411141	1071.466384914778	1367.768303963263	494.008259773847	1019.796836404286	1433.160811855704	682.685583359087	948.771250380676	1496.343947699108	516.266261086479	1029.149159689281	940.681028125838	631.476544258358	986.489948692218	966.649057488394	359.586677135952	1027.571865743868	730.652644408480	606.556786121826	927.541539443825	635.541154642979	673.225553877664	987.445004583317	571.112867826708	593.001968697573	973.258643038728	488.914150396024	600.359206502325	1058.664847482807	780.441099376862	375.568107232022	1007.061506312778	652.430134314811	294.813821508901	1115.827848234764	593.441347983966	345.933709929688	1142.843479828635	527.376736184694	338.122613103363	1122.129803381509	455.488989452899	328.938271762550	1045.584857546929	330.855889574402	278.255449009906	1130.889388795837	225.183008555505	323.835115340377	939.586382383093	404.443550355822	606.205334721966	862.785163303668	303.946867492900	667.586467936669	901.685296199506	207.492267106695	602.497058331176	763.695722678138	43.735903644614	568.664157969171	935.385709834783	96.362037936051	604.096806304369	847.232447049131	36.167862791018	642.416939607218	1055.528000252970	43.343073592864	630.012639336792	1043.728840148199	46.193539844562	363.016539576625	1111.705123367351	51.504056122332	278.170866148859	1184.660860029527	128.931491705378	296.304741346384	1315.484303190713	99.815912541899	259.151130787972	801.555141926322	1115.425274904677	270.931747014342	777.586731379390	854.100914308614	285.799584880565	1161.341081144110	1116.112975505590	785.741198058761	1412.696332446278	1115.523528160142	736.457172929525	
19	2.387857142857	790.250593577009	1011.215690550052	539.312836398514	943.423757273973	1441.782360548564	352.830136684134	1071.311945648662	1367.373780607427	491.968186656589	1019.346490504323	1432.642491455390	680.594034299210	948.511018542062	1495.714673664303	514.112892086437	1029.579035709659	940.184327580362	629.805678806076	987.264339478662	965.778854799683	357.689228100866	1026.910804208048	729.843356774062	605.349926954658	925.974429293517	635.337163103175	671.980599731014	985.555962471730	570.439455764810	592.058203287170	970.717143252289	488.199684521353	599.418117046998	1059.131159696494	778.881209341312	374.100409426535	1006.015602390743	650.141957931760	295.294339495716	1114.963849551234	591.208167481707	345.636386118591	1141.341006306249	525.015488102344	338.834491576952	1120.416492430649	452.857884317866	330.274556878117	1043.173676554660	328.335937102402	280.769735252746	1127.958528918020	222.604500379238	326.846794379808	936.446618279105	403.950242365253	605.445913167337	858.996484329982	304.113325848526	667.107304243402	897.161560177518	207.238463875669	602.195668554183	758.362305627217	43.742349263265	568.719900583536	930.063000328613	96.330053842156	604.111256705064	841.881504128933	36.140123203832	642.457587674366	1050.194278346787	43.279853541297	630.038089291640	1039.601939528781	45.367639933471	367.537992825962	1107.339869544249	49.204507161419	282.498693622058	1181.442949579863	125.353903851788	300.030606207968	1311.585405531294	94.014526047701	262.761956214327	800.264289262065	1115.406589116313	269.654896660401	774.530159930367	854.243743307581	284.561980614367	1161.478819320239	1115.529271465256	782.535043248925	1413.026897308927	1116.077593551490	734.607890324926	
20	2.401071428571	790.703924962073	1010.523354787332	536.919602105104	943.298848001274	1440.993942224682	350.415131414915	1071.148343431783	1366.959323840113	489.741957899480	1018.754907980275	1432.099402652181	678.299345515152	948.175368272478	1494.988958619795	511.683448123027	1030.155677871802	939.605862303540	628.021922518854	988.340679485070	964.806529760085	355.677756456156	1026.470705459068	728.954054984269	604.027835858743	924.665106315101	635.032411917456	670.608177245536	983.974456463944	569.679116316644	590.991245658087	968.469698529527	487.358600937528	598.331835470185	1059.967504752070	777.148962957698	372.696329129098	1005.325822004715	647.780505964738	295.893388160629	1114.279535963191	588.825463699212	345.751338730903	1139.808981344306	522.270921427020	339.923976232313	1118.415061890859	449.773195148879	331.850796491570	1039.955359332625	325.680674876780	283.540380574150	1123.734821011193	219.549043066419	330.174858657352	933.568754055199	403.314760898280	604.569572065676	855.409363075925	304.209088484174	666.539330985350	892.727208105919	206.887790691353	601.824922903795	753.028646022015	43.711769286301	568.768599858851	924.722957225199	96.287032733460	604.109226488172	836.526807709666	36.097475345239	642.493101119435	1044.861588729558	43.212350862375	630.061220446266	1033.367308442965	44.540959800634	372.284996967939	1100.888552652853	46.774043558521	287.044084632234	1176.485565675817	121.194231380939	304.161288957385	1305.830650910342	87.071630033824	266.705001758620	799.517806167135	1114.975991478919	267.876161383262	772.767627896106	853.909915368074	282.428983817909	1160.943333154056	1114.686292093138	779.456448583576	1412.737791158913	1115.482376379177	732.940250320470	
21	2.414285714286	791.413396897889	1009.616046465776	534.288432920732	943.203334166700	1440.051466376580	347.745556130114	1070.997023380359	1366.517863815992	487.340094033950	1018.037528594440	1431.525477286149	675.810615902507	947.792734749345	1494.173648142177	508.985749434079	1030.865542533458	938.948063144458	626.129191111883	989.695577021154	963.738449498804	353.569797381459	1026.279479785150	727.987583704531	602.582092007857	923.663128339270	634.612567840256	669.098242796683	982.735179883172	568.826094247807	589.767971497578	966.562005429414	486.376151699075	597.064706972163	1061.109314679250	775.231571983600	371.414461512110	1004.948104086070	645.401555446110	296.550320530047	1113.713051972199	586.323698465548	346.267959217037	1138.193067685687	519.214390831061	341.367613611681	1116.164685272614	446.353026214818	333.586280750785	1036.160454480623	322.923868611813	286.382101722512	1118.558148595349	216.146636141175	333.645374958758	930.990023545216	402.523656238694	603.548337533590	852.063150098877	304.228179858366	665.865870531574	888.401468072135	206.436364288888	601.367792428832	747.698031499458	43.658622048504	568.808305170001	919.371144105726	96.234931911728	604.084226459544	831.173599140522	36.046783897104	642.519512411248	1039.531999749280	43.128903412773	630.084003832480	1025.599804655621	43.660997563972	376.951115228090	1092.964242320513	44.333274334036	291.533163147599	1170.236636920676	116.715340177715	308.507397130463	1298.757593658612	79.529683361039	270.838299527941	799.361899528285	1114.125661035513	265.577265068322	772.334666957705	853.088971430173	279.433512290636	1159.750861087811	1113.569517022951	776.514765831612	1411.846257885179	1113.726407510615	731.462959364753	
